<svg role="img" viewBox="0 0 24 24" xmlns="http://www.w3.org/2000/svg">
  <title>JSON Web Tokens</title>
  <path fill="#FFF" d="M10.2 0v6.456L12 8.928l1.8-2.472V0z"/>
  <path fill="#FF1A6B" d="M13.8 6.456v3.072l2.904-.96L20.52 3.36l-2.928-2.136z"/>
  <path fill="#C94DFF" d="M16.704 8.568l-1.8 2.496 2.928.936 6.144-1.992-1.128-3.432z"/>
  <path fill="#00C8FF" d="M17.832 12l-2.928.936 1.8 2.496 6.144 1.992 1.128-3.432z"/>
  <path fill="#2DD4B4" d="M16.704 15.432l-2.904-.96v3.072l3.792 5.232 2.928-2.136z"/>
  <path fill="#FFF" d="M13.8 17.544L12 15.072l-1.8 2.472V24h3.6z"/>
  <path fill="#FF1A6B" d="M10.2 17.544v-3.072l-2.904.96L3.48 20.64l2.928 2.136z"/>
  <path fill="#C94DFF" d="M7.296 15.432l1.8-2.496L6.168 12 .024 13.992l1.128 3.432z"/>
  <path fill="#00C8FF" d="M6.168 12l2.928-.936-1.8-2.496-6.144-1.992-1.128 3.432z"/>
  <path fill="#2DD4B4" d="M7.296 8.568l2.904.96V6.456L6.408 1.224 3.48 3.36z"/>
</svg>
